<mxfile host="app.diagrams.net" modified="2024-03-13T06:42:44.335Z" agent="Mozilla/5.0 (X11; Linux x86_64) AppleWebKit/537.36 (KHTML, like Gecko) Chrome/122.0.0.0 Safari/537.36" version="24.0.5" etag="453tdBMubF-c1ytwNcaH" type="github">
  <diagram name="第 1 页" id="30JHLl2sjNOQR5o9voup">
    <mxGraphModel>
      <root>
        <mxCell id="0" />
        <mxCell id="1" parent="0" />
      </root>
    </mxGraphModel>
  </diagram>
</mxfile>
